HIERARCHY
ROOT Hips
{
	OFFSET -0.001795 -0.223333 0.028219
	CHANNELS 6 Xposition Yposition Zposition Zrotation Yrotation Xrotation 
	JOINT LeftUpLeg
	{
		OFFSET 0.069520 -0.091406 -0.006815
		CHANNELS 3 Zrotation Yrotation Xrotation
		JOINT LeftLeg
		{
			OFFSET 0.034277 -0.375199 -0.004496
			CHANNELS 3 Zrotation Yrotation Xrotation
			JOINT LeftFoot
			{
				OFFSET -0.013596 -0.397961 -0.043693
				CHANNELS 3 Zrotation Yrotation Xrotation
				JOINT LeftToe
				{
					OFFSET 0.026358 -0.055791 0.119288
					CHANNELS 3 Zrotation Yrotation Xrotation
					End Site
					{
						OFFSET 0.000000 0.000000 0.000000
					}
				}
			}
		}
	}
	JOINT RightUpLeg
	{
		OFFSET -0.067670 -0.090522 -0.004320
		CHANNELS 3 Zrotation Yrotation Xrotation
		JOINT RightLeg
		{
			OFFSET -0.038290 -0.382569 -0.008850
			CHANNELS 3 Zrotation Yrotation Xrotation
			JOINT RightFoot
			{
				OFFSET 0.015774 -0.398415 -0.042312
				CHANNELS 3 Zrotation Yrotation Xrotation
				JOINT RightToe
				{
					OFFSET -0.025372 -0.048144 0.123348
					CHANNELS 3 Zrotation Yrotation Xrotation
					End Site
					{
						OFFSET 0.000000 0.000000 0.000000
					}
				}
			}
		}
	}
	JOINT Spine
	{
		OFFSET -0.002533 0.108963 -0.026696
		CHANNELS 3 Zrotation Yrotation Xrotation
		JOINT Spine1
		{
			OFFSET 0.005487 0.135180 0.001092
			CHANNELS 3 Zrotation Yrotation Xrotation
			JOINT Spine2
			{
				OFFSET 0.001457 0.052922 0.025425
				CHANNELS 3 Zrotation Yrotation Xrotation
				JOINT Neck
				{
					OFFSET -0.002778 0.213870 -0.042857
					CHANNELS 3 Zrotation Yrotation Xrotation
					JOINT Head
					{
						OFFSET 0.005152 0.064970 0.051349
						CHANNELS 3 Zrotation Yrotation Xrotation
						End Site
						{
							OFFSET 0.000000 0.000000 0.000000
						}
					}
				}
				JOINT LeftShoulder
				{
					OFFSET 0.078845 0.121749 -0.034090
					CHANNELS 3 Zrotation Yrotation Xrotation
					JOINT LeftArm
					{
						OFFSET 0.090977 0.030469 -0.008868
						CHANNELS 3 Zrotation Yrotation Xrotation
						JOINT LeftForeArm
						{
							OFFSET 0.259612 -0.012772 -0.027456
							CHANNELS 3 Zrotation Yrotation Xrotation
							JOINT LeftHand
							{
								OFFSET 0.249234 0.008986 -0.001171
								CHANNELS 3 Zrotation Yrotation Xrotation
								End Site
								{
									OFFSET 0.000000 0.000000 0.000000
								}
							}
						}
					}
				}
				JOINT RightShoulder
				{
					OFFSET -0.081759 0.118833 -0.038615
					CHANNELS 3 Zrotation Yrotation Xrotation
					JOINT RightArm
					{
						OFFSET -0.096012 0.032551 -0.009143
						CHANNELS 3 Zrotation Yrotation Xrotation
						JOINT RightForeArm
						{
							OFFSET -0.253742 -0.013329 -0.021401
							CHANNELS 3 Zrotation Yrotation Xrotation
							JOINT RightHand
							{
								OFFSET -0.255298 0.007772 -0.005559
								CHANNELS 3 Zrotation Yrotation Xrotation
								End Site
								{
									OFFSET 0.000000 0.000000 0.000000
								}
							}
						}
					}
				}
			}
		}
	}
}
MOTION
Frames: 8
Frame Time: 0.050000
-0.020430 0.936951 -0.011720 -7.246350 -12.089464 10.035703 16.600616 2.118258 -23.862511 -4.721842 1.280528 17.479297 -0.799158 0.345803 6.366326 0.000000 0.000000 0.000000 -4.543673 1.331208 -14.310201 4.385599 -0.154144 10.154127 -8.152490 -21.190770 14.001374 0.000000 0.000000 0.000000 -14.582178 4.043988 26.889070 0.011712 0.187116 -15.982938 -8.160525 3.266847 25.714198 -8.352429 7.171931 -6.281333 0.000000 0.000000 0.000000 -20.548254 -27.120502 15.043107 -18.999690 -55.635070 3.217342 -4.552282 -31.365955 2.652383 0.000000 0.000000 0.000000 -11.907541 13.086953 3.855547 43.627388 12.115051 -1.893362 105.852177 71.716115 91.272903 0.000000 0.000000 0.000000 
-0.020636 0.936257 -0.012141 -7.128376 -11.958777 10.083726 16.509929 2.104584 -24.059009 -4.592584 1.249742 17.724146 -0.937177 0.091170 6.342907 0.000000 0.000000 0.000000 -4.714639 1.332488 -14.433962 4.377372 -0.149439 10.383397 -8.189094 -21.237969 13.913751 0.000000 0.000000 0.000000 -14.427157 3.982551 26.877851 0.032615 0.183780 -15.978165 -8.361800 2.960093 25.785957 -8.440303 7.183016 -6.723173 0.000000 0.000000 0.000000 -19.774018 -27.152129 14.931374 -20.007946 -56.054112 3.757710 -4.191304 -31.391074 2.569940 0.000000 0.000000 0.000000 -12.893033 12.762437 3.743987 44.089238 12.957754 -1.635032 106.336680 71.838834 91.816396 0.000000 0.000000 0.000000 
-0.020650 0.935774 -0.012436 -6.913125 -11.801106 9.993887 16.289488 2.037664 -24.112019 -4.588365 1.246639 17.847264 -0.956010 -0.007413 6.100513 0.000000 0.000000 0.000000 -4.743527 1.333796 -14.516051 3.961490 -0.073209 10.792813 -7.977389 -20.877308 13.784089 0.000000 0.000000 0.000000 -14.181415 3.895103 26.935902 -0.143335 0.243227 -16.189162 -8.527615 2.919364 25.932121 -8.495562 7.242651 -6.675500 0.000000 0.000000 0.000000 -19.773161 -27.216045 14.956241 -20.966639 -56.175401 4.197957 -3.950936 -32.157070 2.585181 0.000000 0.000000 0.000000 -13.499538 12.864275 3.717296 43.906622 13.611569 -1.414470 107.336763 72.313299 93.426922 0.000000 0.000000 0.000000 
-0.020397 0.935468 -0.012647 -6.619244 -11.513766 10.017051 16.114482 1.978935 -24.281691 -4.547649 1.207411 17.635311 -1.220227 -0.383690 6.412692 0.000000 0.000000 0.000000 -4.923328 1.338491 -14.736849 3.933936 -0.072784 10.879464 -8.142172 -21.115403 13.647858 0.000000 0.000000 0.000000 -14.155696 3.839132 26.766476 -0.270803 0.285021 -16.062655 -8.556763 3.109438 26.045443 -8.551847 7.267582 -7.172966 0.000000 0.000000 0.000000 -19.004427 -27.073552 14.579499 -23.043152 -57.104647 5.335118 -3.374177 -32.337312 2.458034 0.000000 0.000000 0.000000 -14.799332 12.337485 3.483980 44.124853 14.505919 -1.054965 107.650972 72.717029 94.446700 0.000000 0.000000 0.000000 
-0.020027 0.935163 -0.012866 -6.349879 -11.064887 9.830431 15.823570 1.844568 -24.122423 -4.366020 1.114647 17.324693 -1.516860 -0.925561 6.358028 0.000000 0.000000 0.000000 -5.092964 1.299964 -14.512460 3.837574 -0.064332 10.982065 -8.184418 -21.132261 13.552019 0.000000 0.000000 0.000000 -14.009031 3.736901 26.724139 -0.612096 0.393166 -16.040557 -8.481556 3.229301 25.990710 -8.467210 7.236693 -6.970413 0.000000 0.000000 0.000000 -19.305584 -26.820790 14.416326 -24.739699 -57.635128 6.229831 -2.915018 -32.923429 2.397352 0.000000 0.000000 0.000000 -15.941434 12.567267 3.407908 43.918190 15.275291 -0.711792 106.798020 72.941162 93.956668 0.000000 0.000000 0.000000 
-0.019742 0.934848 -0.013220 -6.008509 -10.610449 9.613209 15.581088 1.719764 -23.940703 -4.383005 1.070462 16.798045 -1.747347 -1.282874 6.484229 0.000000 0.000000 0.000000 -5.457844 1.259674 -14.391404 4.195089 -0.133564 11.125324 -8.479786 -21.562960 13.535999 0.000000 0.000000 0.000000 -14.227181 3.753223 26.700282 -0.653950 0.418069 -16.142160 -8.324230 3.637737 26.227863 -8.315559 7.145405 -7.368395 0.000000 0.000000 0.000000 -19.319340 -26.654179 14.150575 -26.584526 -58.337907 7.243812 -2.554948 -33.359667 2.344596 0.000000 0.000000 0.000000 -17.219690 12.481162 3.199668 43.907423 15.654674 -0.474728 106.670204 73.079271 94.370981 0.000000 0.000000 0.000000 
-0.019553 0.934593 -0.013716 -5.787482 -10.041448 9.435339 15.320636 1.581647 -23.702272 -4.227598 0.978042 16.316738 -2.040955 -1.830909 6.387597 0.000000 0.000000 0.000000 -5.605588 1.222361 -14.174903 4.410198 -0.186459 11.078036 -8.858832 -22.132485 13.688516 0.000000 0.000000 0.000000 -14.354401 3.735871 26.727167 -0.716588 0.451575 -16.290784 -8.297964 3.870693 26.261570 -8.454987 7.314917 -7.118882 0.000000 0.000000 0.000000 -20.082906 -26.492189 14.099504 -27.729736 -58.642587 7.848590 -2.073767 -33.700087 2.241413 0.000000 0.000000 0.000000 -18.320377 12.775137 3.086296 43.959179 15.995110 -0.241503 104.820956 72.790341 92.380674 0.000000 0.000000 0.000000 
-0.019559 0.934342 -0.014326 -5.605668 -9.677439 9.367518 15.199047 1.525740 -23.809591 -4.365517 0.993395 16.174674 -2.182684 -2.039192 6.475455 0.000000 0.000000 0.000000 -5.775925 1.199530 -14.092078 4.713175 -0.247372 11.154075 -9.183335 -22.627218 13.844168 0.000000 0.000000 0.000000 -14.441384 3.736108 26.794295 -0.919187 0.522723 -16.480323 -8.215625 4.314709 26.266646 -8.295097 7.252100 -6.938280 0.000000 0.000000 0.000000 -20.246081 -26.399200 13.901809 -28.786732 -58.833479 8.396130 -1.794555 -34.221962 2.202019 0.000000 0.000000 0.000000 -18.738696 12.831061 2.963254 44.067700 15.928486 -0.144626 104.870353 72.630176 92.651778 0.000000 0.000000 0.000000 
